<?xml version="1.0" encoding="UTF-8" standalone="no"?>
<!-- Created with Inkscape (http://www.inkscape.org/) -->

<svg
   xmlns:dc="http://purl.org/dc/elements/1.1/"
   xmlns:cc="http://creativecommons.org/ns#"
   xmlns:rdf="http://www.w3.org/1999/02/22-rdf-syntax-ns#"
   xmlns:svg="http://www.w3.org/2000/svg"
   xmlns="http://www.w3.org/2000/svg"
   xmlns:xlink="http://www.w3.org/1999/xlink"
   xmlns:sodipodi="http://sodipodi.sourceforge.net/DTD/sodipodi-0.dtd"
   xmlns:inkscape="http://www.inkscape.org/namespaces/inkscape"
   width="1366"
   height="768"
   viewBox="0 0 1366 768"
   id="svg2"
   version="1.1"
   inkscape:version="0.91 r13725"
   sodipodi:docname="archSolarizedWallpaper2.svg"
   inkscape:export-filename="/home/kekke/.config/awesome/themes/archSolarizedWallpaper2.png"
   inkscape:export-xdpi="90"
   inkscape:export-ydpi="90">
  <defs
     id="defs4">
    <inkscape:perspective
       id="perspective72"
       inkscape:persp3d-origin="182.5 : 91.666667 : 1"
       inkscape:vp_z="365 : 137.5 : 1"
       inkscape:vp_y="0 : 1000 : 0"
       inkscape:vp_x="0 : 137.5 : 1"
       sodipodi:type="inkscape:persp3d" />
    <linearGradient
       gradientTransform="translate(287,-83)"
       x1="112.49854"
       y1="6.1372099"
       x2="112.49853"
       y2="129.3468"
       id="path1082_2_"
       gradientUnits="userSpaceOnUse">
      <stop
         style="stop-color:#ffffff;stop-opacity:0"
         offset="0"
         id="stop193" />
      <stop
         style="stop-color:#ffffff;stop-opacity:0.27450982;"
         offset="1"
         id="stop195" />
      <midPointStop
         offset="0"
         style="stop-color:#FFFFFF"
         id="midPointStop197" />
      <midPointStop
         offset="0.5"
         style="stop-color:#FFFFFF"
         id="midPointStop199" />
      <midPointStop
         offset="1"
         style="stop-color:#000000"
         id="midPointStop201" />
    </linearGradient>
    <linearGradient
       id="linearGradient3388">
      <stop
         id="stop3390"
         offset="0"
         style="stop-color:#000000;stop-opacity:0;" />
      <stop
         id="stop3392"
         offset="1"
         style="stop-color:#000000;stop-opacity:0.37113401;" />
    </linearGradient>
    <linearGradient
       id="linearGradient4346"
       inkscape:collect="always">
      <stop
         id="stop4348"
         offset="0"
         style="stop-color:#00bdec;stop-opacity:1" />
      <stop
         id="stop4350"
         offset="1"
         style="stop-color:#40bfde;stop-opacity:1" />
    </linearGradient>
    <linearGradient
       gradientUnits="userSpaceOnUse"
       y2="666.97791"
       x2="616.48553"
       y1="634.15063"
       x1="400.6142"
       id="linearGradient4352"
       xlink:href="#linearGradient4346"
       inkscape:collect="always" />
    <linearGradient
       id="linearGradient5323"
       inkscape:collect="always">
      <stop
         id="stop5325"
         offset="0"
         style="stop-color:#6e6e6e;stop-opacity:1" />
      <stop
         id="stop5327"
         offset="1"
         style="stop-color:#4d4d4d;stop-opacity:1" />
    </linearGradient>
    <linearGradient
       gradientUnits="userSpaceOnUse"
       y2="348.96875"
       x2="650.81366"
       y1="238.08237"
       x1="291.83591"
       id="linearGradient5329"
       xlink:href="#linearGradient5323"
       inkscape:collect="always" />
    <linearGradient
       y2="183.9644"
       x2="490.72305"
       y1="237.72447"
       x1="490.72305"
       gradientTransform="matrix(0.6551957,0,0,0.6551957,-113.28394,148.38658)"
       gradientUnits="userSpaceOnUse"
       id="linearGradient2231"
       xlink:href="#linearGradient3388"
       inkscape:collect="always" />
    <linearGradient
       y2="303.14029"
       x2="606.91248"
       y1="104.50665"
       x1="541.33502"
       gradientTransform="matrix(-0.6710118,0,0,0.6709741,706.10281,-117.5032)"
       gradientUnits="userSpaceOnUse"
       id="linearGradient2261"
       xlink:href="#path1082_2_"
       inkscape:collect="always" />
    <linearGradient
       y2="303.14029"
       x2="606.91248"
       y1="104.50665"
       x1="541.33502"
       gradientTransform="matrix(-0.6710118,0,0,0.6709741,901.93156,-57.609066)"
       gradientUnits="userSpaceOnUse"
       id="linearGradient2198"
       xlink:href="#path1082_2_"
       inkscape:collect="always" />
    <linearGradient
       id="linearGradient2461">
      <stop
         style="stop-color:#26a7e8;stop-opacity:1;"
         offset="0"
         id="stop2463" />
      <stop
         style="stop-color:#3ab0ea;stop-opacity:1;"
         offset="1"
         id="stop2465" />
    </linearGradient>
    <linearGradient
       inkscape:collect="always"
       xlink:href="#path1082_2_"
       id="linearGradient2544"
       gradientUnits="userSpaceOnUse"
       gradientTransform="matrix(-0.3937741,0,0,0.393752,357.51969,122.00151)"
       x1="541.33502"
       y1="104.50665"
       x2="606.91248"
       y2="303.14029" />
  </defs>
  <sodipodi:namedview
     id="base"
     pagecolor="#ffffff"
     bordercolor="#797979"
     borderopacity="1"
     inkscape:pageopacity="0"
     inkscape:pageshadow="2"
     inkscape:zoom="0.35"
     inkscape:cx="289.28572"
     inkscape:cy="291.42857"
     inkscape:document-units="px"
     inkscape:current-layer="layer1-1"
     showgrid="false"
     units="px"
     inkscape:window-width="1362"
     inkscape:window-height="735"
     inkscape:window-x="0"
     inkscape:window-y="0"
     inkscape:window-maximized="1" />
  <metadata
     id="metadata7">
    <rdf:RDF>
      <cc:Work
         rdf:about="">
        <dc:format>image/svg+xml</dc:format>
        <dc:type
           rdf:resource="http://purl.org/dc/dcmitype/StillImage" />
        <dc:title />
      </cc:Work>
    </rdf:RDF>
  </metadata>
  <g
     inkscape:label="Layer 1"
     inkscape:groupmode="layer"
     id="layer1"
     transform="translate(0,-284.36218)"
     style="display:inline">
    <rect
       style="fill:#002b36;fill-opacity:1"
       id="rect4174"
       width="1645.7142"
       height="994.28571"
       x="-114.28571"
       y="192.36218" />
    <g
       transform="matrix(0.52619047,0,0,0.52619047,240.57449,848.68021)"
       id="layer1-1"
       inkscape:label="Layer 1">
      <path
         style="fill:#7d8c93;fill-opacity:0;stroke:none;stroke-width:1px;stroke-linecap:butt;stroke-linejoin:miter;stroke-opacity:1"
         d="m 396.67459,689.81774 c 1.05022,-2.73685 23.58699,-44.31545 50.08171,-92.39691 63.63734,-115.48629 101.12317,-185.40032 140.31928,-261.70654 17.75826,-34.57143 32.52367,-63.19625 32.81203,-63.61071 0.28835,-0.41446 9.23792,5.08957 19.88793,12.23118 19.06096,12.78177 66.76509,37.07699 68.80197,35.04012 0.57355,-0.57356 -7.58248,-7.6777 -18.12448,-15.78699 -10.54203,-8.10929 -28.57863,-23.484 -40.08135,-34.16603 L 629.45765,250 l 18.2157,-41.42857 c 10.01864,-22.78572 27.01474,-63.00141 37.76914,-89.36822 l 19.55342,-47.939645 31.0168,72.225365 c 34.42515,80.162 100.51803,214.64576 163.27426,332.22536 22.64554,42.42857 40.91943,77.47565 40.6086,77.8824 -0.31083,0.40677 -8.8038,-2.98658 -18.87323,-7.54075 -18.08543,-8.17963 -54.40894,-20.3418 -60.75188,-20.34151 -1.79875,8e-5 7.18248,5.90391 19.95831,13.11963 12.7758,7.21568 37.20437,23.95677 54.28572,37.2024 l 31.05694,24.08297 23.82017,43.51171 c 13.1011,23.93146 24.5523,45.28466 25.4471,47.4516 0.8948,2.16692 -13.0386,-4.03588 -30.96307,-13.784 -72.6364,-39.50294 -132.25966,-65.1956 -181.83626,-78.35628 l -24.48143,-6.49886 -0.29063,-36.93609 c -0.32822,-41.71305 -6.11414,-64.44791 -22.66025,-89.04005 -33.36192,-49.58509 -87.30068,-37.72166 -110.50797,24.30537 -8.96057,23.94928 -12.69304,56.012 -9.25306,79.48568 1.59118,10.85783 2.5361,20.14643 2.09981,20.64138 -0.43628,0.49494 -8.83028,2.7748 -18.65333,5.06637 -50.32289,11.73954 -119.72352,41.50554 -199.55282,85.58843 -17.23552,9.51771 -23.43785,11.84037 -22.0651,8.26305 z"
         id="path3596"
         inkscape:connector-curvature="0"
         transform="matrix(1.9004525,0,0,1.9004525,-457.20039,-1072.4596)" />
      <path
         style="fill:#7d8c93;fill-opacity:0"
         d="m 394.42857,693.32409 c 0,-0.52892 15.5969,-29.13606 34.65979,-63.57143 62.74513,-113.34346 127.85422,-234.95717 158.69341,-296.41476 16.69196,-33.26441 30.70265,-60.91738 31.13486,-61.45104 0.43221,-0.53365 8.27778,4.11329 17.4346,10.32652 21.51251,14.59703 72.36306,40.33787 72.36306,36.6306 0,-0.55802 -7.39286,-6.54481 -16.42858,-13.30397 -19.25723,-14.40538 -60.71428,-53.88528 -60.71428,-57.81873 0,-1.494 4.73957,-13.16389 10.53239,-25.93311 5.79281,-12.7692 22.34566,-51.91532 36.78409,-86.99135 l 26.25172,-63.77461 17.95,42.34604 c 45.84457,108.15237 114.34211,248.22232 189.61894,387.74992 15.16837,28.115 27.03134,51.66574 26.36212,52.33497 -0.66923,0.6692 -7.45178,-1.92937 -15.07232,-5.77465 -15.79631,-7.97072 -60.61103,-23.30395 -62.52291,-21.39203 -0.69777,0.69777 4.18123,4.29123 10.84223,7.98545 19.07825,10.58098 50.22477,32.08643 73.15525,50.51086 20.0656,16.12252 22.21503,19.06223 46.21409,63.20594 13.84337,25.46335 24.55457,46.297 23.80267,46.297 -0.7519,0 -16.71441,-8.44062 -35.47224,-18.75694 -68.7966,-37.83631 -129.87895,-64.18088 -178.44603,-76.96306 -17.38003,-4.57417 -25.40894,-7.97505 -24.77217,-10.493 2.5298,-10.0036 1.02803,-59.90817 -2.22046,-73.787 -8.92191,-38.11771 -32.47089,-70.29902 -56.27966,-76.91002 -14.67611,-4.07512 -17.62237,-3.86086 -31.01343,2.25554 -35.26815,16.1088 -54.47562,60.101 -52.2566,119.68686 l 1.19824,32.17522 -11.61368,2.90103 c -31.94736,7.98026 -72.58625,22.2102 -107.32796,37.58155 -35.51406,15.71308 -109.20804,53.82762 -115.57142,59.7736 -2.6555,2.48128 -7.28572,3.48197 -7.28572,1.5746 z"
         id="path4398"
         inkscape:connector-curvature="0"
         transform="matrix(1.9004525,0,0,1.9004525,-457.20039,-1072.4596)" />
      <path
         style="fill:#7d8c93;fill-opacity:0"
         d="m 394.42857,693.32409 c 0,-0.52892 15.5969,-29.13606 34.65979,-63.57143 62.74513,-113.34346 127.85422,-234.95717 158.69341,-296.41476 16.69196,-33.26441 30.70265,-60.91738 31.13486,-61.45104 0.43221,-0.53365 8.27778,4.11329 17.4346,10.32652 21.51251,14.59703 72.36306,40.33787 72.36306,36.6306 0,-0.55802 -7.39286,-6.54481 -16.42858,-13.30397 -19.25723,-14.40538 -60.71428,-53.88528 -60.71428,-57.81873 0,-1.494 4.73957,-13.16389 10.53239,-25.93311 5.79281,-12.7692 22.34566,-51.91532 36.78409,-86.99135 l 26.25172,-63.77461 17.95,42.34604 c 45.84457,108.15237 114.34211,248.22232 189.61894,387.74992 15.16837,28.115 27.03134,51.66574 26.36212,52.33497 -0.66923,0.6692 -7.45178,-1.92937 -15.07232,-5.77465 -15.79631,-7.97072 -60.61103,-23.30395 -62.52291,-21.39203 -0.69777,0.69777 4.18123,4.29123 10.84223,7.98545 19.07825,10.58098 50.22477,32.08643 73.15525,50.51086 20.0656,16.12252 22.21503,19.06223 46.21409,63.20594 13.84337,25.46335 24.55457,46.297 23.80267,46.297 -0.7519,0 -16.71441,-8.44062 -35.47224,-18.75694 -68.7966,-37.83631 -129.87895,-64.18088 -178.44603,-76.96306 -17.38003,-4.57417 -25.40894,-7.97505 -24.77217,-10.493 2.5298,-10.0036 1.02803,-59.90817 -2.22046,-73.787 -8.92191,-38.11771 -32.47089,-70.29902 -56.27966,-76.91002 -14.67611,-4.07512 -17.62237,-3.86086 -31.01343,2.25554 -35.26815,16.1088 -54.47562,60.101 -52.2566,119.68686 l 1.19824,32.17522 -11.61368,2.90103 c -31.94736,7.98026 -72.58625,22.2102 -107.32796,37.58155 -35.51406,15.71308 -109.20804,53.82762 -115.57142,59.7736 -2.6555,2.48128 -7.28572,3.48197 -7.28572,1.5746 z"
         id="path4400"
         inkscape:connector-curvature="0"
         transform="matrix(1.9004525,0,0,1.9004525,-457.20039,-1072.4596)" />
      <path
         style="fill:#7d8c93;fill-opacity:0"
         d="m 394.42857,693.32409 c 0,-0.52892 15.5969,-29.13606 34.65979,-63.57143 62.74513,-113.34346 127.85422,-234.95717 158.69341,-296.41476 16.69196,-33.26441 30.70265,-60.91738 31.13486,-61.45104 0.43221,-0.53365 8.27778,4.11329 17.4346,10.32652 21.51251,14.59703 72.36306,40.33787 72.36306,36.6306 0,-0.55802 -7.39286,-6.54481 -16.42858,-13.30397 -19.25723,-14.40538 -60.71428,-53.88528 -60.71428,-57.81873 0,-1.494 4.73957,-13.16389 10.53239,-25.93311 5.79281,-12.7692 22.34566,-51.91532 36.78409,-86.99135 l 26.25172,-63.77461 17.95,42.34604 c 45.84457,108.15237 114.34211,248.22232 189.61894,387.74992 15.16837,28.115 27.03134,51.66574 26.36212,52.33497 -0.66923,0.6692 -7.45178,-1.92937 -15.07232,-5.77465 -15.79631,-7.97072 -60.61103,-23.30395 -62.52291,-21.39203 -0.69777,0.69777 4.18123,4.29123 10.84223,7.98545 19.07825,10.58098 50.22477,32.08643 73.15525,50.51086 20.0656,16.12252 22.21503,19.06223 46.21409,63.20594 13.84337,25.46335 24.55457,46.297 23.80267,46.297 -0.7519,0 -16.71441,-8.44062 -35.47224,-18.75694 -68.7966,-37.83631 -129.87895,-64.18088 -178.44603,-76.96306 -17.38003,-4.57417 -25.40894,-7.97505 -24.77217,-10.493 2.5298,-10.0036 1.02803,-59.90817 -2.22046,-73.787 -8.92191,-38.11771 -32.47089,-70.29902 -56.27966,-76.91002 -14.67611,-4.07512 -17.62237,-3.86086 -31.01343,2.25554 -35.26815,16.1088 -54.47562,60.101 -52.2566,119.68686 l 1.19824,32.17522 -11.61368,2.90103 c -31.94736,7.98026 -72.58625,22.2102 -107.32796,37.58155 -35.51406,15.71308 -109.20804,53.82762 -115.57142,59.7736 -2.6555,2.48128 -7.28572,3.48197 -7.28572,1.5746 z"
         id="path4402"
         inkscape:connector-curvature="0"
         transform="matrix(1.9004525,0,0,1.9004525,-457.20039,-1072.4596)" />
      <path
         style="fill:#fdf6e3;fill-opacity:1"
         d="m 660.57942,-162.39637 c 0,-0.30697 9.05176,-16.9093 20.11504,-36.8941 36.41454,-65.77961 74.20102,-136.35892 92.09875,-172.02624 9.68729,-19.30521 17.81848,-35.35379 18.06932,-35.66351 0.25084,-0.3097 4.80406,2.38718 10.11828,5.99307 12.48493,8.47148 41.99638,23.41034 41.99638,21.25881 0,-0.32385 -4.2905,-3.79833 -9.53444,-7.72105 -11.17606,-8.36026 -35.23593,-31.27267 -35.23593,-33.55548 0,-0.86705 2.75065,-7.63975 6.11255,-15.05045 3.36189,-7.41069 12.96845,-30.12939 21.34788,-50.48599 l 15.23536,-37.01201 10.4174,24.57579 c 26.60619,62.76694 66.35918,144.05745 110.04657,225.0332 8.80307,16.31672 15.68782,29.98455 15.29944,30.37294 -0.38841,0.38838 -4.3247,-1.11972 -8.74734,-3.35136 -9.16748,-4.62585 -35.17598,-13.5246 -36.28557,-12.415 -0.40497,0.40496 2.42662,2.49044 6.29237,4.63441 11.07219,6.14074 29.14828,18.62157 42.45611,29.31431 11.64522,9.35681 12.89266,11.06289 26.82061,36.68197 8.0341,14.77783 14.2504,26.86877 13.8141,26.86877 -0.4364,0 -9.7003,-4.89857 -20.5866,-10.88571 -39.92652,-21.95855 -75.37606,-37.2478 -103.56227,-44.66601 -10.08661,-2.65466 -14.74624,-4.62838 -14.37669,-6.08968 1.46819,-5.80566 0.59663,-34.7681 -1.28866,-42.82277 -5.17789,-22.12187 -18.84469,-40.7985 -32.66227,-44.63524 -8.51737,-2.36501 -10.22725,-2.24067 -17.99884,1.30902 -20.4681,9.34885 -31.61528,34.88001 -30.32745,69.46105 l 0.6954,18.6731 -6.74008,1.68363 c -18.54085,4.6314 -42.1259,12.88984 -62.28848,21.8107 -20.61082,9.11919 -63.3796,31.23921 -67.07262,34.69 -1.54114,1.44002 -4.22832,2.02078 -4.22832,0.91383 z"
         id="path4404"
         inkscape:connector-curvature="0" />
    </g>
  </g>
</svg>
